<?xml version="1.0" encoding="utf-8"?>
<!-- Generator: Adobe Illustrator 23.0.1, SVG Export Plug-In . SVG Version: 6.00 Build 0)  -->
<svg version="1.1" id="Layer_1" xmlns="http://www.w3.org/2000/svg" xmlns:xlink="http://www.w3.org/1999/xlink" x="0px" y="0px"
	 viewBox="0 0 541.7 314" style="enable-background:new 0 0 541.7 314;" xml:space="preserve">
<style type="text/css">
	.st0{display:none;}
	.st1{display:inline;fill:#135A70;}
	.st2{fill:#FFFFFF;}
	.st3{fill:#135A70;}
	.st4{display:none;opacity:0.5;}
	.st5{fill:#606153;}
	.st6{clip-path:url(#SVGID_2_);}
	.st7{fill:#46463A;}
	.st8{display:none;clip-path:url(#SVGID_4_);fill:#135A70;}
</style>
<g class="st0">
	
		<image style="display:inline;overflow:visible;enable-background:new    ;" width="3518" height="1678" xlink:href="94F5E6CED95C8C2.png"  transform="matrix(0.1524 0 0 0.1524 18.6049 19.0561)">
	</image>
</g>
<g id="Layer_11" class="st0">
	<rect x="-42.8" y="-0.6" class="st1" width="627" height="314"/>
</g>
<g id="Layer_10">
	<path class="st2" d="M411.2,256.6l-372.9-29c0,0-23.9,0.9-26.7-28.5v-87.8c3.6-29.5,36.4-27.6,37.2-27.6c0,0,0,0,0,0l368.2-28
		c61.6,0.9,69.9,27.1,69.9,27.1l0.5,144.4C480.1,260.3,411.2,256.6,411.2,256.6z"/>
</g>
<g>
	<path class="st3" d="M473.1,33.2L33.2,68l0,0C8.9,75.4,5.8,106.7,5.8,106.7v97.9c4.8,32,20.2,38,26.6,39.1l2.9,0.2l0,0l424.3,33.8
		c0,0,63.9,6.4,75.4-24.8V58.4C535,58.4,532,36.4,473.1,33.2z M412.2,256.6l-372.9-29c0,0-23.9,0.9-26.7-28.5v-87.8
		c3.6-29.5,36.4-27.6,37.2-27.6c0,0,0,0,0,0l368.2-28c61.6,0.9,69.9,27.1,69.9,27.1l0.5,144.4C481.1,260.3,412.2,256.6,412.2,256.6z
		"/>
</g>
<g id="Layer_3" class="st4">
	<polygon class="st1" points="444,283.4 445.1,283.4 444.2,283.8 	"/>
	<path class="st1" d="M503.5,217.2c-7.4,33.1-76.3,29.4-76.3,29.4l-372.9-29c0,0-23.9,0.9-26.7-28.5v-87.8
		c3.6-29.5,36.4-27.6,37.2-27.6c0,0,0,0,0,0l368.2-28c61.6,0.9,69.9,27.1,69.9,27.1L503.5,217.2z"/>
</g>
<g id="Layer_4" class="st4">
	<path class="st1" d="M67.2,65l-2.3,8.7c0,0,0,0,0,0l-40.4-5.5L9.8,91.8l17.9,9.5c-3.7,29.9-31.3-34-31.3-34l23.9-27.6h38.2L67.2,65
		z"/>
	<path class="st1" d="M64.9,73.7c-0.8-0.1-33.6-1.9-37.2,27.6L9.8,91.8l14.7-23.6L64.9,73.7z"/>
	<path class="st1" d="M62.6,253.9l-50.6-6l15.6-58.8c2.8,29.4,26.7,28.5,26.7,28.5L62.6,253.9z"/>
	<path class="st1" d="M76,253l-15.6,16.1c0,0-49.2-4.6-57-5.5c-7.8-0.9-6.9-28-6.9-28l6.9-64.8c0,0,21.6-11,24.4,18.4L12.1,248
		l50.6,6l-8.3-36.3l10.6,10.1L76,253z"/>
	<path class="st1" d="M527.4,223.6l-13.3,28.5l-69,31.3l-1.1,0l-16.8-36.9c0,0,69,3.7,76.3-29.4L527.4,223.6z"/>
	<polygon class="st1" points="427.2,246.6 444,283.4 414.8,283.8 399.2,258.1 	"/>
	<path class="st1" d="M576.6,230L553.2,282l-108.1,1.4l69-31.3l13.3-28.5l-23.9-6.4c7.4-33.1,39.5-25.8,39.5-25.8L576.6,230z"/>
	<path class="st1" d="M503.1,72.8c0,0-8.3-26.2-69.9-27.1l67.6-15.2L503.1,72.8z"/>
	<path class="st1" d="M567.4,47.3l-23,32.9L503,72.8l-2.3-42.3l-67.6,15.2c-61.6-0.9-34-23.9-34-23.9l90.6-7.4l68.5,4.6L567.4,47.3z
		"/>
</g>
<g id="Layer_5" class="st0">
	<path class="st1" d="M555.5,23.1l-5.5,25.3c0,0-2.9-22.1-61.9-25.2l0.7-0.1C488.8,23.2,555.5,23.2,555.5,23.1z"/>
	<path class="st1" d="M579.4,70.5l-12.6-11.7l-16.8-10.4l5.5-25.3h-66.7l-0.7,0.1c-0.4,0-0.7,0-1.1-0.1C427,20.2,453,0,453,0
		l81.6,7.1l42.8,6.2l-3,21.9L579.4,70.5z"/>
	<path class="st1" d="M560.5,279.2l-88.7,10.6l2.8-22.1c0,0,63.9,6.4,75.4-24.8L560.5,279.2z"/>
	<path class="st1" d="M584,225.9l-13.8,55.2L521.7,314l-60.2-8l-23.2-22.5l36.3-15.6l-2.8,22.1l88.7-10.6l-10.6-36.3
		C561.4,211.7,584,225.9,584,225.9z"/>
	<path class="st1" d="M47.4,233.8l-0.4,0l-40-1.4l-6.4-48.7l20.2,11C25.6,226.7,41,232.7,47.4,233.8z"/>
	<path class="st1" d="M50.3,234v16.1l-20.9,15.9l-53.8-8.7l-18.8-36.1l18.4-33.8c0,0,39.5-33.6,45.7,7.3l-20.2-11L7,232.3l40,1.4
		l0.4,0C49.2,234,50.2,234,50.3,234L50.3,234z"/>
	<path class="st1" d="M48.2,58c-24.3,7.4-27.4,38.7-27.4,38.7L8.4,54L47,58.1L48.2,58z"/>
	<path class="st1" d="M48.2,58L48.2,58L47,58.1L8.4,54l12.4,42.8l-36.2,29.5l-8-40.7l29.4-51l49.4,3.9C55.3,38.4,72.6,50.6,48.2,58z
		"/>
</g>
<g id="Layer_6">
	<g>
		<path class="st5" d="M86.9,152.4h28.9c6.2,7.5,9.3,15.4,9.3,23.7c0,9.7-3.6,17.8-10.9,24.4s-16.3,9.9-26.9,9.9
			c-13.8,0-25.6-5.1-35.3-15.3c-9.7-10.2-14.5-22.6-14.5-37.3c0-14.7,4.9-26.9,14.8-36.7c9.8-9.8,22.1-14.7,36.9-14.7
			c5,0,10.6,1,16.7,3v29.5c-4.8-2.2-9.1-3.3-13.1-3.3c-7.1,0-12.9,2.1-17.4,6.5c-4.5,4.3-6.8,9.9-6.8,16.8c0,7,2.1,12.6,6.3,16.7
			s9.8,6.2,17,6.2c4.5,0,6.8-1.3,6.8-3.9c0-1.9-1.5-2.9-4.5-2.9h-7.2V152.4z"/>
		<path class="st5" d="M181.5,147.4v22.1h-19.8c-2.7,0-4.6,0.4-5.7,1.2s-1.7,2.1-1.7,3.9c0,2.1,0.6,3.4,1.7,4.1c1.1,0.6,3.5,1,7,1
			h20.4v28.3h-23.8c-11.2,0-19.8-2.6-25.7-7.8s-8.9-12.7-8.9-22.5v-38.8c0-9.5,2.8-16.8,8.4-22.1c5.6-5.2,13.5-7.8,23.7-7.8h26.4
			v28.4h-19.4c-5.2,0-7.9,1.6-7.9,4.9c0,1.9,0.6,3.3,1.9,4c1.2,0.8,3.5,1.1,6.6,1.1H181.5z"/>
		<path class="st5" d="M188.4,207.9v-64.3c0-11.3,3.5-20.3,10.4-27.1c6.9-6.8,16.2-10.2,27.8-10.2c11.5,0,20.3,3.3,26.4,9.9
			s9.2,16,9.2,28.4v63.3h-30.3v-63.3c0-6.1-2.2-9.1-6.6-9.1c-4.3,0-6.4,3-6.4,9.1v63.3H188.4z"/>
		<path class="st5" d="M324.6,147.4v22.1h-19.8c-2.7,0-4.6,0.4-5.7,1.2s-1.7,2.1-1.7,3.9c0,2.1,0.6,3.4,1.7,4.1c1.1,0.6,3.5,1,7,1
			h20.4v28.3h-23.8c-11.2,0-19.8-2.6-25.7-7.8s-8.9-12.7-8.9-22.5v-38.8c0-9.5,2.8-16.8,8.4-22.1c5.6-5.2,13.5-7.8,23.7-7.8h26.4
			v28.4h-19.4c-5.2,0-7.9,1.6-7.9,4.9c0,1.9,0.6,3.3,1.9,4s3.5,1.1,6.6,1.1H324.6z"/>
		<path class="st5" d="M381.5,108.4v28.2c-2.2-0.7-3.9-1.1-5.1-1.1c-2.3,0-4.3,0.8-5.9,2.5c-1.6,1.6-2.5,3.6-2.5,5.9
			c0,2,0.9,4.5,2.7,7.6l2.3,3.9c4.2,7.1,6.3,13.9,6.3,20.5c0,9.6-3.5,17.8-10.6,24.5c-7,6.7-15.7,10-25.8,10
			c-4.9,0-9.7-1.1-14.5-3.3v-28.7c2.9,1.8,5.5,2.7,7.7,2.7c2.6,0,4.9-0.7,6.6-2.2c1.8-1.5,2.6-3.3,2.6-5.6c0-1.4-1.4-4.6-4.3-9.5
			c-4.5-7.7-6.8-15.5-6.8-23.2c0-9.3,3.4-17.4,10.3-24.1c6.9-6.8,15-10.1,24.5-10.1C373.3,106.4,377.4,107.1,381.5,108.4z"/>
		<path class="st5" d="M440.9,147.4v22.1h-19.8c-2.7,0-4.6,0.4-5.7,1.2s-1.7,2.1-1.7,3.9c0,2.1,0.6,3.4,1.7,4.1c1.1,0.6,3.5,1,7,1
			h20.4v28.3H419c-11.2,0-19.8-2.6-25.7-7.8s-8.9-12.7-8.9-22.5v-38.8c0-9.5,2.8-16.8,8.4-22.1c5.6-5.2,13.5-7.8,23.7-7.8h26.4v28.4
			h-19.4c-5.2,0-7.9,1.6-7.9,4.9c0,1.9,0.6,3.3,1.9,4s3.5,1.1,6.6,1.1H440.9z"/>
	</g>
</g>
<g id="Layer_6_copy" class="st0">
</g>
<g id="Layer_8">
	<g>
		<g>
			<defs>
				<path id="SVGID_1_" d="M443.8,146.9c0,0-392.2-11.6-443.8,41.6s249.6,92.6,249.6,92.6l186.4-51l37.7-32.7L443.8,146.9z"/>
			</defs>
			<clipPath id="SVGID_2_">
				<use xlink:href="#SVGID_1_"  style="overflow:visible;"/>
			</clipPath>
			<g class="st6">
				<path class="st7" d="M86.9,152.4h28.9c6.2,7.5,9.3,15.4,9.3,23.7c0,9.7-3.6,17.8-10.9,24.4s-16.3,9.9-26.9,9.9
					c-13.8,0-25.6-5.1-35.3-15.3c-9.7-10.2-14.5-22.6-14.5-37.3c0-14.7,4.9-26.9,14.8-36.7c9.8-9.8,22.1-14.7,36.9-14.7
					c5,0,10.6,1,16.7,3v29.5c-4.8-2.2-9.1-3.3-13.1-3.3c-7.1,0-12.9,2.1-17.4,6.5c-4.5,4.3-6.8,9.9-6.8,16.8c0,7,2.1,12.6,6.3,16.7
					s9.8,6.2,17,6.2c4.5,0,6.8-1.3,6.8-3.9c0-1.9-1.5-2.9-4.5-2.9h-7.2V152.4z"/>
				<path class="st7" d="M181.5,147.4v22.1h-19.8c-2.7,0-4.6,0.4-5.7,1.2s-1.7,2.1-1.7,3.9c0,2.1,0.6,3.4,1.7,4.1c1.1,0.6,3.5,1,7,1
					h20.4v28.3h-23.8c-11.2,0-19.8-2.6-25.7-7.8s-8.9-12.7-8.9-22.5v-38.8c0-9.5,2.8-16.8,8.4-22.1c5.6-5.2,13.5-7.8,23.7-7.8h26.4
					v28.4h-19.4c-5.2,0-7.9,1.6-7.9,4.9c0,1.9,0.6,3.3,1.9,4c1.2,0.8,3.5,1.1,6.6,1.1H181.5z"/>
				<path class="st7" d="M188.4,207.9v-64.3c0-11.3,3.5-20.3,10.4-27.1c6.9-6.8,16.2-10.2,27.8-10.2c11.5,0,20.3,3.3,26.4,9.9
					s9.1,16,9.1,28.4v63.3h-30.3v-63.3c0-6.1-2.2-9.1-6.6-9.1c-4.3,0-6.4,3-6.4,9.1v63.3H188.4z"/>
				<path class="st7" d="M324.6,147.4v22.1h-19.8c-2.7,0-4.6,0.4-5.7,1.2s-1.7,2.1-1.7,3.9c0,2.1,0.6,3.4,1.7,4.1c1.1,0.6,3.5,1,7,1
					h20.4v28.3h-23.8c-11.2,0-19.8-2.6-25.7-7.8s-8.9-12.7-8.9-22.5v-38.8c0-9.5,2.8-16.8,8.4-22.1c5.6-5.2,13.5-7.8,23.7-7.8h26.4
					v28.4h-19.4c-5.2,0-7.9,1.6-7.9,4.9c0,1.9,0.6,3.3,1.9,4s3.5,1.1,6.6,1.1H324.6z"/>
				<path class="st7" d="M381.5,108.4v28.2c-2.2-0.7-3.9-1.1-5.1-1.1c-2.3,0-4.3,0.8-5.9,2.5c-1.6,1.6-2.5,3.6-2.5,5.9
					c0,2,0.9,4.5,2.7,7.6l2.3,3.9c4.2,7.1,6.3,13.9,6.3,20.5c0,9.6-3.5,17.8-10.6,24.5c-7,6.7-15.7,10-25.8,10
					c-4.9,0-9.7-1.1-14.5-3.3v-28.7c2.9,1.8,5.5,2.7,7.7,2.7c2.6,0,4.9-0.7,6.6-2.2c1.8-1.5,2.6-3.3,2.6-5.6c0-1.4-1.4-4.6-4.3-9.5
					c-4.5-7.7-6.8-15.5-6.8-23.2c0-9.3,3.4-17.4,10.3-24.1c6.9-6.8,15-10.1,24.5-10.1C373.3,106.4,377.4,107.1,381.5,108.4z"/>
				<path class="st7" d="M440.9,147.4v22.1h-19.8c-2.7,0-4.6,0.4-5.7,1.2s-1.7,2.1-1.7,3.9c0,2.1,0.6,3.4,1.7,4.1c1.1,0.6,3.5,1,7,1
					h20.4v28.3H419c-11.2,0-19.8-2.6-25.7-7.8s-8.9-12.7-8.9-22.5v-38.8c0-9.5,2.8-16.8,8.4-22.1c5.6-5.2,13.5-7.8,23.7-7.8h26.4
					v28.4h-19.4c-5.2,0-7.9,1.6-7.9,4.9c0,1.9,0.6,3.3,1.9,4s3.5,1.1,6.6,1.1H440.9z"/>
			</g>
		</g>
		<g>
			<defs>
				<path id="SVGID_3_" d="M443.8,146.9c0,0-392.2-11.6-443.8,41.6s249.6,92.6,249.6,92.6l186.4-51l37.7-32.7L443.8,146.9z"/>
			</defs>
			<clipPath id="SVGID_4_">
				<use xlink:href="#SVGID_3_"  style="overflow:visible;"/>
			</clipPath>
			<ellipse class="st8" cx="330.1" cy="251.1" rx="446.9" ry="106.7"/>
		</g>
	</g>
</g>
<g id="Layer_7">
	<polygon class="st7" points="281.6,88.4 297.6,88.4 301.5,105.8 297.1,105.8 	"/>
</g>
</svg>
